<?xml version="1.0" encoding="utf-8"?>
<!-- Generator: Adobe Illustrator 22.1.0, SVG Export Plug-In . SVG Version: 6.00 Build 0)  -->
<svg version="1.1" id="Layer_1" xmlns="http://www.w3.org/2000/svg" xmlns:xlink="http://www.w3.org/1999/xlink" x="0px" y="0px"
	 viewBox="0 0 462 49" style="enable-background:new 0 0 462 49;" xml:space="preserve">
<style type="text/css">
	.st0{enable-background:new    ;}
	.st1{fill:#00274C;}
</style>
<g class="st0">
	<path class="st1" d="M3.7,6.3h14.1C28,6.3,35,12.4,35,21.8s-7,15.6-17.2,15.6H3.7V6.3z M17.5,31.5c6.2,0,10.2-3.7,10.2-9.7
		s-4-9.7-10.2-9.7h-6.6v19.3h6.6V31.5z"/>
	<path class="st1" d="M39.1,6.3c0-2.2,1.7-3.9,4.3-3.9s4.3,1.6,4.3,3.7c0,2.3-1.7,4-4.3,4S39.1,8.4,39.1,6.3z M40,13.5h6.9v23.9H40
		V13.5z"/>
	<path class="st1" d="M77.1,13.5L67,37.4h-7.2l-10-23.9H57l6.6,16.3l6.9-16.3H77.1z"/>
	<path class="st1" d="M102.6,27.4H84.5c0.7,3,3.2,4.8,6.9,4.8c2.5,0,4.4-0.8,6-2.3l3.7,4c-2.2,2.5-5.6,3.9-9.9,3.9
		c-8.3,0-13.7-5.2-13.7-12.3c0-7.2,5.5-12.3,12.8-12.3c7,0,12.5,4.7,12.5,12.4C102.7,26.1,102.7,26.8,102.6,27.4z M84.4,23.3h11.8
		c-0.5-3-2.8-5-5.9-5C87.2,18.4,84.9,20.3,84.4,23.3z"/>
	<path class="st1" d="M122.2,13.1v6.4c-0.6,0-1-0.1-1.6-0.1c-3.8,0-6.4,2.1-6.4,6.7v11.3h-6.9V13.5h6.6v3.2
		C115.7,14.3,118.5,13.1,122.2,13.1z"/>
	<path class="st1" d="M124.2,35.2l2.3-5c2.1,1.4,5.4,2.3,8.3,2.3c3.2,0,4.4-0.8,4.4-2.2c0-3.9-14.5,0.1-14.5-9.5
		c0-4.5,4.1-7.7,11.1-7.7c3.3,0,6.9,0.8,9.2,2.1l-2.3,4.9c-2.4-1.3-4.7-1.8-6.9-1.8c-3.1,0-4.4,1-4.4,2.2c0,4.1,14.5,0.1,14.5,9.6
		c0,4.5-4.1,7.6-11.3,7.6C130.5,37.8,126.4,36.6,124.2,35.2z"/>
	<path class="st1" d="M149.3,6.3c0-2.2,1.7-3.9,4.3-3.9s4.3,1.6,4.3,3.7c0,2.3-1.7,4-4.3,4S149.3,8.4,149.3,6.3z M150.1,13.5h6.9
		v23.9h-6.9V13.5z"/>
	<path class="st1" d="M171.1,14h6.1v5.3h-6v18.1h-6.9V19.3h-3.7V14h3.7v-1.1c0-5.4,3.3-8.9,9.3-8.9c2,0,4,0.4,5.3,1.3l-1.8,5
		c-0.8-0.5-1.7-0.8-2.8-0.8c-2,0-3.2,1.1-3.2,3.5L171.1,14L171.1,14z"/>
	<path class="st1" d="M204.9,13.5l-10.8,25.4c-2.3,5.8-5.6,7.5-9.9,7.5c-2.4,0-5.1-0.8-6.7-2.2l2.5-4.9c1.1,0.9,2.5,1.5,3.9,1.5
		c1.9,0,3-0.8,3.9-3l0.1-0.2l-10.4-24.1h7.2l6.7,16.2l6.8-16.2C198.2,13.5,204.9,13.5,204.9,13.5z"/>
	<path class="st1" d="M231.7,31.6v5.8h-24.1V6.3h23.5V12h-16.4v6.8h14.5v5.6h-14.5v7.2C214.7,31.6,231.7,31.6,231.7,31.6z"/>
	<path class="st1" d="M261.5,31.6v5.8h-24.1V6.3h23.5V12h-16.4v6.8H259v5.6h-14.5v7.2C244.5,31.6,261.5,31.6,261.5,31.6z"/>
	<path class="st1" d="M295.8,28.9c0,5.4-4.3,8.5-12.5,8.5h-16.1V6.3h15.2c7.8,0,11.8,3.2,11.8,8.1c0,3.1-1.6,5.5-4.1,6.9
		C293.6,22.3,295.8,25,295.8,28.9z M274.4,11.7V19h7.2c3.5,0,5.4-1.2,5.4-3.7s-1.9-3.6-5.4-3.6C281.6,11.7,274.4,11.7,274.4,11.7z
		 M288.6,28.1c0-2.6-2-3.9-5.7-3.9h-8.4V32h8.4C286.6,32,288.6,30.8,288.6,28.1z"/>
</g>
</svg>
